<svg width="512" height="512" xmlns="http://www.w3.org/2000/svg" preserveAspectRatio="xMidYMid">

 <g>
  <title>background</title>
  <rect fill="none" id="canvas_background" height="402" width="582" y="-1" x="-1"/>
 </g>
 <g>
  <title>Layer 1</title>
  <circle fill="#ffffff" id="svg_1" r="256" cy="256" cx="256" class="cls-1"/>
  <path fill-rule="evenodd" fill="#e3b71e" id="svg_2" d="m256,512c-141.385002,0 -256,-114.61499 -256,-256c0,-141.385002 114.614998,-256 256,-256c141.38501,0 256,114.614998 256,256c0,141.38501 -114.61499,256 -256,256zm-159.085999,-335.005997l-38.926003,0l0,167.771988l38.926003,0l0,-167.771988zm149.867004,0l-56.443008,0l-10.403992,74.731995l-12.952011,-74.731995l-54.496994,0l0,169.723007l35.009995,0.696991l0.024002,-102.141006l19.462997,99.492996l25.302002,0l17.516998,-99.492996l1.945999,101.444016l35.034012,0l0,-169.723007zm83.691986,0c-33.144989,0 -72.013977,0 -72.013977,0l0,167.771988c0,0 41.514984,0 75.906982,0c6.903015,0 22.77301,-5.983978 22.877014,-21.730988c0.071991,-10.813995 0.256989,-101.600998 0.438995,-117.807007c0,-12.197998 -15.906006,-28.233994 -27.209015,-28.233994zm130.981995,39.123001c-17.845978,-25.819 -51.181976,-0.106003 -51.181976,-0.106003l0,-39.016998l-38.927002,0l0,169.723007c0,0 30.312988,0.556 33.087006,0c2.774994,-0.556 9.731995,-9.753998 9.731995,-9.753998c0,0 20.734985,23.698975 44.009003,1.618988c2.181,-2.070007 6.040985,-6.089996 6.595001,-11.372986c0.554993,-5.284027 0,-97.82901 0,-101.444016c0,-3.615005 -2.147003,-7.960007 -3.314026,-9.647995zm-49.235992,103.287994c0,-7.230011 0,-76.938995 0,-85.837006c0,-8.897995 11.678009,-8.619995 11.678009,0c0,8.62001 0,76.661011 0,85.837006c0,9.177002 -11.678009,7.230011 -11.678009,0zm-95.369995,-11.704987c0,6.078003 -7.625,7.617981 -15.570984,7.802979c0,-43.567993 0,-65.255997 0,-111.196991c15.928986,0.242004 15.570984,11.498001 15.570984,13.654999c0,2.156998 0,83.660004 0,89.739014z" class="cls-2"/>
 </g>
</svg>