<svg width="512" height="512" xmlns="http://www.w3.org/2000/svg" preserveAspectRatio="xMidYMid">

 <g>
  <title>background</title>
  <rect fill="none" id="canvas_background" height="402" width="582" y="-1" x="-1"/>
 </g>
 <g>
  <title>Layer 1</title>
  <circle fill="#ffffff" id="svg_1" r="256" cy="256" cx="256" class="cls-1"/>
  <path fill-rule="evenodd" fill="#0177b5" id="svg_2" d="m256,512c-141.385002,0 -256,-114.61499 -256,-256c0,-141.385002 114.614998,-256 256,-256c141.38501,0 256,114.614998 256,256c0,141.38501 -114.61499,256 -256,256zm-120.776993,-121.007996l59.860992,0l0,-188.319l-59.860992,0l0,188.319zm29.922989,-268.992004c-17.200989,0 -31.145996,13.977005 -31.145996,31.218002c0,17.242004 13.945007,31.218994 31.145996,31.218994c17.201004,0 31.146011,-13.97699 31.146011,-31.218994c0,-17.240997 -13.945007,-31.218002 -31.146011,-31.218002zm246.675995,126.201004c-0.394989,-6.333008 -18.47699,-49.60701 -59.860992,-49.667007c-40.210999,-0.056992 -63.989014,24.834 -63.989014,24.834l0,-18.625l-54.843979,0l-0.889008,184.180008l59.861008,0c0,0 0.273987,-112.315002 0,-115.889008c-0.39502,-5.144989 9.39798,-21.278992 30.962982,-20.694c21.564026,0.584 30.962006,15.063019 30.962006,18.625c0,3.562012 0,120.027008 0,120.027008l57.796997,0c0,0 0.39502,-136.458008 0,-142.791z" class="cls-2"/>
 </g>
</svg>