<svg width="512" height="512" xmlns="http://www.w3.org/2000/svg" preserveAspectRatio="xMidYMid">

 <g>
  <title>background</title>
  <rect fill="none" id="canvas_background" height="402" width="582" y="-1" x="-1"/>
 </g>
 <g>
  <title>Layer 1</title>
  <circle fill="#ffffff" id="svg_1" r="256" cy="256" cx="256" class="cls-1"/>
  <path fill-rule="evenodd" fill="#1ab7ea" id="svg_2" d="m256,512c-141.385002,0 -256,-114.61499 -256,-256c0,-141.385002 114.614998,-256 256,-256c141.38501,0 256,114.614998 256,256c0,141.38501 -114.61499,256 -256,256zm127.552002,-348.139008c-13.071991,-54.439995 -103.196991,-59.098991 -135.096008,45.559006c22.084015,-8.175995 43.862,-2.906998 45.574005,6.509003c8.179016,44.969986 -45.541992,91.117996 -52.084991,91.117996c-40.896011,-7.359009 -7.006012,-122.921997 -48.830002,-161.084c-36.345001,-33.162994 -111.466003,46.287003 -117.191002,63.457001c-5.725006,17.171005 2.395996,17.081009 11.392998,17.899002c8.997002,0.817001 17.121002,-17.477005 32.554001,-9.763c35.987991,17.988007 20.714005,144.708008 74.871994,190.372009c40.456009,41.608978 213.810989,-139.938019 188.809006,-244.067017z" class="cls-2"/>
 </g>
</svg>